# xmcd
#
# Track frame offsets:
#	150
#	26425
#	46511
#	73699
#	89727
#	113687
#	131053
#	145415
#	166955
#	188264
#	220907
#
# Disc length: 3250 seconds
#
# Revision: 2
# Processed by: cddbd v1.4PL0 Copyright (c) Steve Scherf et al.
# Submitted via: dBpowerAMP V4.0
#
DISCID=940cb00b
DTITLE=Robert Cray Band - Sweet Potato Pie
DYEAR=1997
DGENRE=Jazz
TTITLE0=Nothing Against You
TTITLE1=Do That For Me
TTITLE2=Back Home
TTITLE3=Save It
TTITLE4=The One In The Middle
TTITLE5=Little Birds
TTITLE6=Trick Or Treat
TTITLE7=Simple Things
TTITLE8=Jealous Minds
TTITLE9=Not Bad For Love
TTITLE10=I Can't Quit
EXTD=
EXTT0=
EXTT1=
EXTT2=
EXTT3=
EXTT4=
EXTT5=
EXTT6=
EXTT7=
EXTT8=
EXTT9=
EXTT10=
PLAYORDER=
